{"title":"Teen Manipulations 2 XXX **[NEW]** 01 September 2014 ","uid":10945378,"size":1366626335,"categoryP":"porn","categoryS":"movies","magnet":"?xt=urn:btih:517037d5780720319e1e737b86eb87abf0e95d68&amp;dn=Teen+Manipulations+2+XXX+%2A%2A%5BNEW%5D%2A%2A+01+September+2014+&amp;tr=udp%3A%2F%2Ftracker.openbittorrent.com%3A80&amp;tr=udp%3A%2F%2Fopen.demonii.com%3A1337&amp;tr=udp%3A%2F%2Ftracker.coppersurfer.tk%3A6969&amp;tr=udp%3A%2F%2Fexodus.desync.com%3A6969","seeders":0,"leechers":0,"uploader":"iH2OSO4","files":-1,"time":1409593757,"description":"Teen Manipulations 2 XXX **[NEW]** 01 September 2014 \n\nTeen Manipulations # 2 Starring Halle Von!Because Morality Is Always Negotiable!Good Girls With No Options!Youthful innocence is destroyed when good girls are made to make bad choices. Teen Manipulations # 2 movie Four tales of young women exploited to satisfy opportunistic carnal desires!\n\nSOURCE :   &lt;a href=&quot; http://nuscotower.com/i/tm_652cgd.html&quot; rel=&quot;nofollow&quot; target=&quot;_NEW&quot;&gt; http://nuscotower.com/i/tm_652cgd.html&lt;/a&gt;\n\nGeneral\nTeen.Manipulations.2.XXX.2014.DVDRiP-eUDOXiU.mp4\nFormat                           : MPEG-4\nFormat profile                   : Base Media\nCodec ID                         : isom\nFile size                        : 1.27 GiB\nDuration                         : 1h 49mn\nOverall bit rate                 : 1 660 Kbps\nEncoded date                     : UTC 2014-09-01 07:17:30\nTagged date                      : UTC 2014-09-01 07:17:30\n\nVideo\nID                               : 1\nFormat                           : MPEG-4 Visual\nFormat profile                   : Simple@L1\nFormat settings, BVOP            : No\nFormat settings, QPel            : No\nFormat settings, GMC             : No warppoints\nFormat settings, Matrix          : Default (H.263)\nCodec ID                         : 20\nDuration                         : 1h 49mn\nBit rate mode                    : Variable\nBit rate                         : 1 531 Kbps\nMaximum bit rate                 : 6 115 Kbps\nWidth                            : 856 pixels\nHeight                           : 480 pixels\nDisplay aspect ratio             : 16:9\nFrame rate mode                  : Constant\nFrame rate                       : 29.970 fps\nColor space                      : YUV\nChroma subsampling               : 4:2:0\nBit depth                        : 8 bits\nScan type                        : Progressive\nCompression mode                 : Lossy\nBits/(Pixel*Frame)               : 0.124\nStream size                      : 1.17 GiB (92%)\nWriting library                  : Lavc53.8.0\nEncoded date                     : UTC 2014-09-01 07:17:30\nTagged date                      : UTC 2014-09-01 07:19:58\n\nAudio\nID                               : 2\nFormat                           : AAC\nFormat/Info                      : Advanced Audio Codec\nFormat profile                   : LC\nCodec ID                         : 40\nDuration                         : 1h 49mn\nBit rate mode                    : Variable\nBit rate                         : 126 Kbps\nMaximum bit rate                 : 211 Kbps\nChannel(s)                       : 2 channels\nChannel positions                : Front: L R\nSampling rate                    : 44.1 KHz\nCompression mode                 : Lossy\nStream size                      : 98.5 MiB (8%)\nEncoded date                     : UTC 2014-09-01 07:19:34\nTagged date                      : UTC 2014-09-01 07:19:58\n","torrent":{"xt":"urn:btih:517037d5780720319e1e737b86eb87abf0e95d68","amp;dn":"Teen+Manipulations+2+XXX+%2A%2A%5BNEW%5D%2A%2A+01+September+2014+","amp;tr":["udp%3A%2F%2Ftracker.openbittorrent.com%3A80","udp%3A%2F%2Fopen.demonii.com%3A1337","udp%3A%2F%2Ftracker.coppersurfer.tk%3A6969","udp%3A%2F%2Fexodus.desync.com%3A6969"],"infoHash":"517037d5780720319e1e737b86eb87abf0e95d68","infoHashBuffer":{"type":"Buffer","data":[81,112,55,213,120,7,32,49,158,30,115,123,134,235,135,171,240,233,93,104]},"announce":[],"urlList":[]}}